<mxfile host="app.diagrams.net" modified="2020-10-20T08:44:32.516Z" agent="5.0 (Windows NT 10.0; Win64; x64) AppleWebKit/537.36 (KHTML, like Gecko) Chrome/86.0.4240.75 Safari/537.36" etag="NmLagGAqqoWktC-FjEpQ" version="13.8.0" type="github">
  <diagram id="C5RBs43oDa-KdzZeNtuy" name="Page-1">
    <mxGraphModel dx="1689" dy="433" grid="1" gridSize="10" guides="1" tooltips="1" connect="1" arrows="1" fold="1" page="1" pageScale="1" pageWidth="827" pageHeight="1169" math="0" shadow="0">
      <root>
        <mxCell id="WIyWlLk6GJQsqaUBKTNV-0" />
        <mxCell id="WIyWlLk6GJQsqaUBKTNV-1" parent="WIyWlLk6GJQsqaUBKTNV-0" />
        <mxCell id="wo__waxmXhGBZY4rEI3c-4" value="Book" style="swimlane;fontStyle=1;childLayout=stackLayout;horizontal=1;startSize=26;fillColor=none;horizontalStack=0;resizeParent=1;resizeParentMax=0;resizeLast=0;collapsible=1;marginBottom=0;" vertex="1" parent="WIyWlLk6GJQsqaUBKTNV-1">
          <mxGeometry x="274" y="290" width="140" height="52" as="geometry" />
        </mxCell>
        <mxCell id="wo__waxmXhGBZY4rEI3c-12" value="Publisher" style="swimlane;fontStyle=1;childLayout=stackLayout;horizontal=1;startSize=26;fillColor=none;horizontalStack=0;resizeParent=1;resizeParentMax=0;resizeLast=0;collapsible=1;marginBottom=0;" vertex="1" parent="WIyWlLk6GJQsqaUBKTNV-1">
          <mxGeometry x="274" y="420" width="140" height="52" as="geometry" />
        </mxCell>
        <mxCell id="wo__waxmXhGBZY4rEI3c-13" value="Mystery_Category" style="swimlane;fontStyle=1;childLayout=stackLayout;horizontal=1;startSize=26;fillColor=none;horizontalStack=0;resizeParent=1;resizeParentMax=0;resizeLast=0;collapsible=1;marginBottom=0;" vertex="1" parent="WIyWlLk6GJQsqaUBKTNV-1">
          <mxGeometry x="414" y="190" width="140" height="52" as="geometry" />
        </mxCell>
        <mxCell id="wo__waxmXhGBZY4rEI3c-15" value="Fiction_Category" style="swimlane;fontStyle=1;childLayout=stackLayout;horizontal=1;startSize=26;fillColor=none;horizontalStack=0;resizeParent=1;resizeParentMax=0;resizeLast=0;collapsible=1;marginBottom=0;" vertex="1" parent="WIyWlLk6GJQsqaUBKTNV-1">
          <mxGeometry x="134" y="190" width="140" height="52" as="geometry" />
        </mxCell>
        <mxCell id="wo__waxmXhGBZY4rEI3c-17" value="" style="endArrow=block;endSize=16;endFill=0;html=1;exitX=1;exitY=0.5;exitDx=0;exitDy=0;entryX=0.5;entryY=0;entryDx=0;entryDy=0;" edge="1" parent="WIyWlLk6GJQsqaUBKTNV-1" source="wo__waxmXhGBZY4rEI3c-15" target="wo__waxmXhGBZY4rEI3c-4">
          <mxGeometry width="160" relative="1" as="geometry">
            <mxPoint x="300" y="450" as="sourcePoint" />
            <mxPoint x="460" y="450" as="targetPoint" />
            <Array as="points">
              <mxPoint x="344" y="216" />
            </Array>
          </mxGeometry>
        </mxCell>
        <mxCell id="wo__waxmXhGBZY4rEI3c-18" value="" style="endArrow=block;endSize=16;endFill=0;html=1;exitX=0;exitY=0.5;exitDx=0;exitDy=0;entryX=0.5;entryY=0;entryDx=0;entryDy=0;" edge="1" parent="WIyWlLk6GJQsqaUBKTNV-1" source="wo__waxmXhGBZY4rEI3c-13" target="wo__waxmXhGBZY4rEI3c-4">
          <mxGeometry width="160" relative="1" as="geometry">
            <mxPoint x="284" y="226" as="sourcePoint" />
            <mxPoint x="354" y="300" as="targetPoint" />
            <Array as="points">
              <mxPoint x="344" y="216" />
            </Array>
          </mxGeometry>
        </mxCell>
        <mxCell id="wo__waxmXhGBZY4rEI3c-19" value="Category" style="edgeLabel;html=1;align=center;verticalAlign=middle;resizable=0;points=[];" vertex="1" connectable="0" parent="wo__waxmXhGBZY4rEI3c-18">
          <mxGeometry x="-0.0278" y="15" relative="1" as="geometry">
            <mxPoint x="-15" y="24" as="offset" />
          </mxGeometry>
        </mxCell>
        <mxCell id="wo__waxmXhGBZY4rEI3c-20" value="" style="endArrow=diamondThin;endFill=1;endSize=24;html=1;exitX=1;exitY=0.5;exitDx=0;exitDy=0;entryX=0;entryY=0.5;entryDx=0;entryDy=0;" edge="1" parent="WIyWlLk6GJQsqaUBKTNV-1" source="wo__waxmXhGBZY4rEI3c-4" target="wo__waxmXhGBZY4rEI3c-0">
          <mxGeometry width="160" relative="1" as="geometry">
            <mxPoint x="300" y="350" as="sourcePoint" />
            <mxPoint x="460" y="350" as="targetPoint" />
          </mxGeometry>
        </mxCell>
        <mxCell id="wo__waxmXhGBZY4rEI3c-25" value="authorized by" style="edgeLabel;html=1;align=center;verticalAlign=middle;resizable=0;points=[];" vertex="1" connectable="0" parent="wo__waxmXhGBZY4rEI3c-20">
          <mxGeometry x="-0.1857" y="1" relative="1" as="geometry">
            <mxPoint as="offset" />
          </mxGeometry>
        </mxCell>
        <mxCell id="wo__waxmXhGBZY4rEI3c-0" value="Author" style="swimlane;fontStyle=1;childLayout=stackLayout;horizontal=1;startSize=26;fillColor=none;horizontalStack=0;resizeParent=1;resizeParentMax=0;resizeLast=0;collapsible=1;marginBottom=0;" vertex="1" parent="WIyWlLk6GJQsqaUBKTNV-1">
          <mxGeometry x="554" y="290" width="140" height="52" as="geometry" />
        </mxCell>
        <mxCell id="wo__waxmXhGBZY4rEI3c-14" value="Owner" style="swimlane;fontStyle=1;childLayout=stackLayout;horizontal=1;startSize=26;fillColor=none;horizontalStack=0;resizeParent=1;resizeParentMax=0;resizeLast=0;collapsible=1;marginBottom=0;" vertex="1" parent="WIyWlLk6GJQsqaUBKTNV-1">
          <mxGeometry x="554" y="420" width="140" height="52" as="geometry" />
        </mxCell>
        <mxCell id="wo__waxmXhGBZY4rEI3c-21" value="" style="endArrow=diamondThin;endFill=1;endSize=24;html=1;exitX=0.5;exitY=1;exitDx=0;exitDy=0;entryX=0.5;entryY=0;entryDx=0;entryDy=0;" edge="1" parent="WIyWlLk6GJQsqaUBKTNV-1" source="wo__waxmXhGBZY4rEI3c-4" target="wo__waxmXhGBZY4rEI3c-12">
          <mxGeometry width="160" relative="1" as="geometry">
            <mxPoint x="424" y="326" as="sourcePoint" />
            <mxPoint x="564" y="326" as="targetPoint" />
          </mxGeometry>
        </mxCell>
        <mxCell id="wo__waxmXhGBZY4rEI3c-26" value="publiished by" style="edgeLabel;html=1;align=center;verticalAlign=middle;resizable=0;points=[];" vertex="1" connectable="0" parent="wo__waxmXhGBZY4rEI3c-21">
          <mxGeometry x="-0.3333" relative="1" as="geometry">
            <mxPoint as="offset" />
          </mxGeometry>
        </mxCell>
        <mxCell id="wo__waxmXhGBZY4rEI3c-5" value="Library" style="swimlane;fontStyle=1;childLayout=stackLayout;horizontal=1;startSize=26;fillColor=none;horizontalStack=0;resizeParent=1;resizeParentMax=0;resizeLast=0;collapsible=1;marginBottom=0;" vertex="1" parent="WIyWlLk6GJQsqaUBKTNV-1">
          <mxGeometry x="-6" y="290" width="140" height="52" as="geometry" />
        </mxCell>
        <mxCell id="wo__waxmXhGBZY4rEI3c-27" value="" style="endArrow=classic;html=1;exitX=1;exitY=0.5;exitDx=0;exitDy=0;entryX=0;entryY=0.5;entryDx=0;entryDy=0;" edge="1" parent="WIyWlLk6GJQsqaUBKTNV-1" source="wo__waxmXhGBZY4rEI3c-5" target="wo__waxmXhGBZY4rEI3c-4">
          <mxGeometry width="50" height="50" relative="1" as="geometry">
            <mxPoint x="350" y="370" as="sourcePoint" />
            <mxPoint x="400" y="320" as="targetPoint" />
          </mxGeometry>
        </mxCell>
        <mxCell id="wo__waxmXhGBZY4rEI3c-28" value="has" style="edgeLabel;html=1;align=center;verticalAlign=middle;resizable=0;points=[];" vertex="1" connectable="0" parent="wo__waxmXhGBZY4rEI3c-27">
          <mxGeometry x="-0.1429" y="2" relative="1" as="geometry">
            <mxPoint x="8" as="offset" />
          </mxGeometry>
        </mxCell>
        <mxCell id="wo__waxmXhGBZY4rEI3c-30" value="" style="endArrow=diamondThin;endFill=0;endSize=24;html=1;entryX=0;entryY=0.5;entryDx=0;entryDy=0;exitX=1;exitY=0.5;exitDx=0;exitDy=0;" edge="1" parent="WIyWlLk6GJQsqaUBKTNV-1" source="wo__waxmXhGBZY4rEI3c-12" target="wo__waxmXhGBZY4rEI3c-14">
          <mxGeometry width="160" relative="1" as="geometry">
            <mxPoint x="414" y="510" as="sourcePoint" />
            <mxPoint x="460" y="350" as="targetPoint" />
          </mxGeometry>
        </mxCell>
        <mxCell id="wo__waxmXhGBZY4rEI3c-31" value="own" style="edgeLabel;html=1;align=center;verticalAlign=middle;resizable=0;points=[];" vertex="1" connectable="0" parent="wo__waxmXhGBZY4rEI3c-30">
          <mxGeometry x="-0.2143" y="1" relative="1" as="geometry">
            <mxPoint x="9" y="-1" as="offset" />
          </mxGeometry>
        </mxCell>
        <mxCell id="wo__waxmXhGBZY4rEI3c-32" value="1...*" style="text;html=1;strokeColor=none;fillColor=none;align=center;verticalAlign=middle;whiteSpace=wrap;rounded=0;" vertex="1" parent="WIyWlLk6GJQsqaUBKTNV-1">
          <mxGeometry x="350" y="400" width="40" height="20" as="geometry" />
        </mxCell>
        <mxCell id="wo__waxmXhGBZY4rEI3c-33" value="0..*" style="text;html=1;strokeColor=none;fillColor=none;align=center;verticalAlign=middle;whiteSpace=wrap;rounded=0;" vertex="1" parent="WIyWlLk6GJQsqaUBKTNV-1">
          <mxGeometry x="350" y="342" width="40" height="20" as="geometry" />
        </mxCell>
        <mxCell id="wo__waxmXhGBZY4rEI3c-35" value="0..*" style="text;html=1;strokeColor=none;fillColor=none;align=center;verticalAlign=middle;whiteSpace=wrap;rounded=0;" vertex="1" parent="WIyWlLk6GJQsqaUBKTNV-1">
          <mxGeometry x="134" y="297" width="40" height="20" as="geometry" />
        </mxCell>
        <mxCell id="wo__waxmXhGBZY4rEI3c-36" value="0..*" style="text;html=1;strokeColor=none;fillColor=none;align=center;verticalAlign=middle;whiteSpace=wrap;rounded=0;" vertex="1" parent="WIyWlLk6GJQsqaUBKTNV-1">
          <mxGeometry x="234" y="297" width="40" height="20" as="geometry" />
        </mxCell>
        <mxCell id="wo__waxmXhGBZY4rEI3c-37" value="1..*" style="text;html=1;strokeColor=none;fillColor=none;align=center;verticalAlign=middle;whiteSpace=wrap;rounded=0;" vertex="1" parent="WIyWlLk6GJQsqaUBKTNV-1">
          <mxGeometry x="410" y="427" width="40" height="20" as="geometry" />
        </mxCell>
        <mxCell id="wo__waxmXhGBZY4rEI3c-38" value="1..*" style="text;html=1;strokeColor=none;fillColor=none;align=center;verticalAlign=middle;whiteSpace=wrap;rounded=0;" vertex="1" parent="WIyWlLk6GJQsqaUBKTNV-1">
          <mxGeometry x="496" y="427" width="40" height="20" as="geometry" />
        </mxCell>
        <mxCell id="wo__waxmXhGBZY4rEI3c-39" value="0..*" style="text;html=1;strokeColor=none;fillColor=none;align=center;verticalAlign=middle;whiteSpace=wrap;rounded=0;" vertex="1" parent="WIyWlLk6GJQsqaUBKTNV-1">
          <mxGeometry x="414" y="290" width="40" height="20" as="geometry" />
        </mxCell>
        <mxCell id="wo__waxmXhGBZY4rEI3c-40" value="1..*" style="text;html=1;strokeColor=none;fillColor=none;align=center;verticalAlign=middle;whiteSpace=wrap;rounded=0;" vertex="1" parent="WIyWlLk6GJQsqaUBKTNV-1">
          <mxGeometry x="500" y="290" width="40" height="20" as="geometry" />
        </mxCell>
      </root>
    </mxGraphModel>
  </diagram>
</mxfile>
